<?xml version="1.0" encoding="iso-8859-1"?>
<!-- Generator: Adobe Illustrator 19.0.0, SVG Export Plug-In . SVG Version: 6.00 Build 0)  -->
<svg version="1.1" id="Layer_1" xmlns="http://www.w3.org/2000/svg" xmlns:xlink="http://www.w3.org/1999/xlink" x="0px" y="0px"
	 viewBox="0 0 480.53 480.53" style="enable-background:new 0 0 480.53 480.53;" xml:space="preserve">
<g>
	<path style="fill:#768989;" d="M115.623,388.204c0,5.018-4.072,9.09-9.106,9.09H67.07c-5.018,0-9.106-4.08-9.106-9.09V366.96
		c0-5.033,4.096-9.106,9.106-9.106h39.448c5.041,0,9.106,4.08,9.106,9.106V388.204z"/>
	<path style="fill:#768989;" d="M463.082,388.204c0,5.018-4.08,9.09-9.106,9.09h-39.448c-5.018,0-9.106-4.08-9.106-9.09V366.96
		c0-5.033,4.096-9.106,9.106-9.106h39.448c5.033,0,9.106,4.08,9.106,9.106V388.204z"/>
</g>
<path style="fill:#C17E52;" d="M266.577,311.775c0,4.08-3.308,7.389-7.389,7.389H136.836c-4.096,0-7.389-3.308-7.389-7.389V189.422
	c0-4.08,3.3-7.389,7.389-7.389h122.352c4.08,0,7.389,3.308,7.389,7.389V311.775z"/>
<path style="fill:#B56841;" d="M266.577,189.422v122.352c0,4.08-3.308,7.389-7.389,7.389H136.836"/>
<path style="fill:#A86743;" d="M129.447,189.422c0-4.08,3.3-7.389,7.389-7.389h122.352c4.08,0,7.389,3.308,7.389,7.389v122.352
	c0,4.08-3.308,7.389-7.389,7.389"/>
<path style="fill:#C17E52;" d="M424.115,311.775c0,4.08-3.308,7.389-7.389,7.389H294.374c-4.096,0-7.389-3.308-7.389-7.389V189.422
	c0-4.08,3.3-7.389,7.389-7.389h122.352c4.08,0,7.389,3.308,7.389,7.389V311.775z"/>
<path style="fill:#B56841;" d="M424.115,189.422v122.352c0,4.08-3.308,7.389-7.389,7.389H294.374"/>
<path style="fill:#A86743;" d="M286.986,189.422c0-4.08,3.3-7.389,7.389-7.389h122.352c4.08,0,7.389,3.308,7.389,7.389v122.352
	c0,4.08-3.308,7.389-7.389,7.389"/>
<path style="fill:#C17E52;" d="M340.1,156.867c0,4.08-3.308,7.389-7.389,7.389H210.359c-4.096,0-7.396-3.308-7.396-7.389V34.515
	c0-4.096,3.308-7.396,7.396-7.396h122.352c4.08,0,7.389,3.308,7.389,7.396V156.867z"/>
<path style="fill:#B56841;" d="M340.1,34.515v122.352c0,4.08-3.308,7.389-7.389,7.389H210.359"/>
<path style="fill:#A86743;" d="M202.963,34.515c0-4.096,3.308-7.396,7.396-7.396h122.352c4.08,0,7.389,3.308,7.389,7.396v122.352
	c0,4.08-3.308,7.389-7.389,7.389"/>
<path style="fill:#FF7F00;" d="M74.27,81.713c-7.538,0-13.643,6.105-13.643,13.643v220.018c0,7.538,6.105,13.643,13.643,13.643
	s13.659-6.105,13.659-13.643V95.364C87.928,87.818,81.808,81.713,74.27,81.713z"/>
<g>
	<path style="fill:#E56505;" d="M74.27,81.713c-7.538,0-13.643,6.105-13.643,13.643v85.74c0,7.538,6.105,13.643,13.643,13.643
		s13.659-6.105,13.659-13.643V95.364C87.928,87.818,81.808,81.713,74.27,81.713z"/>
	<path style="fill:#E56505;" d="M3.992,24.763c-5.325,5.317-5.325,13.966,0.016,19.291l60.613,60.629
		c5.341,5.325,13.966,5.341,19.306,0c5.341-5.341,5.341-13.982,0-19.306L23.314,24.747C17.973,19.423,9.332,19.423,3.992,24.763z"/>
</g>
<path style="fill:#93A4A5;" d="M480.53,367.33c0,5.018-4.08,9.106-9.09,9.106H49.623c-5.033,0-9.106-4.096-9.106-9.106v-44
	c0-5.033,4.08-9.106,9.106-9.106H471.44c5.018,0,9.09,4.08,9.09,9.106V367.33z"/>
<path style="fill:#A9BFBF;" d="M471.44,314.224H49.623c-5.033,0-9.106,4.08-9.106,9.106v4.537c0,5.033,4.08,9.106,9.106,9.106
	H471.44c5.018,0,9.09-4.08,9.09-9.106v-4.537C480.53,318.297,476.449,314.224,471.44,314.224z"/>
<path style="fill:#FFC41F;" d="M142.87,407.637c0,19.566-15.896,35.446-35.462,35.446s-35.446-15.88-35.446-35.446
	c0-19.598,15.88-35.478,35.446-35.478S142.87,388.039,142.87,407.637z"/>
<path style="fill:#FFA522;" d="M107.408,372.159c19.566,0,35.462,15.88,35.462,35.478c0,19.566-15.896,35.446-35.462,35.446"/>
<path style="fill:#1A3D5B;" d="M107.408,459.774c-28.751,0-52.137-23.402-52.137-52.137c0-28.767,23.387-52.153,52.137-52.153
	s52.137,23.387,52.137,52.153C159.545,436.372,136.159,459.774,107.408,459.774z M107.408,388.85
	c-10.35,0-18.771,8.428-18.771,18.786c0,10.335,8.413,18.755,18.771,18.755c10.358,0,18.786-8.413,18.786-18.755
	C126.194,397.286,117.758,388.85,107.408,388.85z"/>
<circle style="fill:#FFC41F;" cx="413.639" cy="407.621" r="35.462"/>
<path style="fill:#FFA522;" d="M388.575,382.541c13.848-13.832,36.305-13.832,50.137,0c13.863,13.848,13.848,36.305,0,50.152"/>
<path style="fill:#1A3D5B;" d="M450.527,444.501c-20.338,20.338-53.413,20.338-73.752,0c-20.338-20.338-20.338-53.398,0-73.736
	c20.338-20.354,53.413-20.354,73.752,0C470.849,391.095,470.849,424.162,450.527,444.501z M400.39,394.348
	c-7.341,7.326-7.341,19.228,0,26.553c7.31,7.326,19.212,7.326,26.537,0c7.318-7.326,7.318-19.228,0-26.553
	C419.61,387.039,407.7,387.039,400.39,394.348z"/>
<g>
</g>
<g>
</g>
<g>
</g>
<g>
</g>
<g>
</g>
<g>
</g>
<g>
</g>
<g>
</g>
<g>
</g>
<g>
</g>
<g>
</g>
<g>
</g>
<g>
</g>
<g>
</g>
<g>
</g>
</svg>
